PathFileType	4	(X/Y/Z)	C:/Users/opensim2020/Desktop/walking_exp_matlab/subject03_walking12_straight_01.trc	
DataRate	CameraRate	NumFrames	NumMarkers	Units	OrigDataRate	OrigDataStartFrame	OrigNumFrames	
100.00	100.00	8	48	mm	100.00	581	211	
Frame#	Time	LFHD			RFHD			LBHD			RBHD			C7			T10			CLAV			STRN			RBAK			LSHO			LUPA			LELB			LFRM			LWRA			LWRB			LFIN			RSHO			RUPA			RELB			RFRM			RWRA			RWRB			RFIN			LASI			RASI			LPSI			RPSI			LTHI			LKNE			LTIB			LANK			LHEE			LTOE			RTHI			RKNE			RTIB			RANK			RHEE			RTOE			*39			*40			*41			*42			*43			*44			*45			*46			*47			
		X1	Y1	Z1	X2	Y2	Z2	X3	Y3	Z3	X4	Y4	Z4	X5	Y5	Z5	X6	Y6	Z6	X7	Y7	Z7	X8	Y8	Z8	X9	Y9	Z9	X10	Y10	Z10	X11	Y11	Z11	X12	Y12	Z12	X13	Y13	Z13	X14	Y14	Z14	X15	Y15	Z15	X16	Y16	Z16	X17	Y17	Z17	X18	Y18	Z18	X19	Y19	Z19	X20	Y20	Z20	X21	Y21	Z21	X22	Y22	Z22	X23	Y23	Z23	X24	Y24	Z24	X25	Y25	Z25	X26	Y26	Z26	X27	Y27	Z27	X28	Y28	Z28	X29	Y29	Z29	X30	Y30	Z30	X31	Y31	Z31	X32	Y32	Z32	X33	Y33	Z33	X34	Y34	Z34	X35	Y35	Z35	X36	Y36	Z36	X37	Y37	Z37	X38	Y38	Z38	X39	Y39	Z39	X40	Y40	Z40	X41	Y41	Z41	X42	Y42	Z42	X43	Y43	Z43	X44	Y44	Z44	X45	Y45	Z45	X46	Y46	Z46	X47	Y47	Z47	X48	Y48	Z48	

27	0.260	-1033.24463	-1129.96411	1592.57336	-901.01550	-1149.25977	1592.29980	-1046.80334	-1248.22534	1528.85193	-916.61487	-1262.58337	1528.75671	-998.84662	-1272.35962	1382.31689	-1014.95929	-1328.11438	1077.80090	-982.67706	-1154.58972	1298.92029	-991.11078	-1123.54724	1129.49792	-924.05585	-1345.69446	1207.83704	-1140.68213	-1173.60144	1344.70117	-1217.59534	-1152.31506	1155.69189	-1225.55408	-1118.18750	1038.76672	-1195.18079	-1040.10889	943.00891	-1134.89209	-974.97882	860.00452	-1187.39807	-982.99701	844.86078	-1157.83484	-925.27979	792.58118	-832.16675	-1227.75146	1322.09583	-758.31689	-1265.79919	1104.84644	-737.57953	-1265.90393	992.56317	-726.65076	-1274.24890	855.70215	-752.22333	-1258.06677	753.52679	-712.48132	-1294.86377	758.00409	-716.94318	-1287.79114	682.60712	-1115.01953	-1190.33569	886.19177	-879.07532	-1189.00012	913.22626	-1066.26184	-1347.38354	934.65570	-921.10138	-1346.81641	953.90552	-1146.86230	-1326.88501	603.03864	-1118.55835	-1384.17957	432.83456	-1123.04639	-1521.87585	290.65503	-1087.15381	-1645.05420	114.51351	-1049.86133	-1695.90845	102.31440	-1072.09167	-1523.03271	27.78655	-820.44531	-1170.91602	636.05774	-861.86261	-1096.39490	476.54523	-854.14258	-1126.24768	284.43839	-896.28467	-1149.01672	68.99752	-945.67816	-1196.23584	34.65878	-915.11823	-1011.56390	35.37904																											 
28	0.270	-1033.08838	-1120.68115	1594.79578	-900.78632	-1139.56458	1594.63611	-1046.22180	-1238.77649	1530.61841	-915.71613	-1253.44739	1530.76831	-997.93109	-1261.96301	1383.92395	-1012.93829	-1319.44153	1080.75330	-982.27771	-1143.76416	1301.10205	-990.77661	-1112.06531	1131.78210	-923.23090	-1334.28979	1208.97583	-1140.40857	-1163.68933	1346.57227	-1217.34668	-1144.13354	1157.16626	-1225.59741	-1111.00037	1040.02917	-1195.17578	-1033.09656	944.13062	-1134.89233	-968.10120	861.27863	-1187.23279	-976.43994	845.90894	-1157.63281	-918.62384	793.70465	-831.47760	-1216.71167	1324.01416	-757.96625	-1253.70154	1106.37585	-737.61102	-1253.31653	994.03137	-727.35449	-1260.62573	857.04138	-753.06281	-1243.62219	755.16693	-713.58649	-1280.53223	759.15417	-717.81073	-1272.32910	684.12787	-1113.63599	-1178.20337	887.51404	-878.45911	-1176.75671	914.76514	-1064.31836	-1337.34448	937.39777	-919.86395	-1334.52893	955.83179	-1146.95679	-1312.06738	603.50873	-1120.80103	-1366.49023	432.87122	-1123.32837	-1509.37378	293.72836	-1084.74744	-1641.91565	120.12345	-1049.50732	-1688.62305	112.75095	-1071.13757	-1522.06873	27.89086	-819.93866	-1162.72717	635.80176	-861.98865	-1089.84155	475.67899	-853.69183	-1120.50854	283.89185	-896.37305	-1148.06006	68.94304	-945.39996	-1196.06689	34.97287	-915.55066	-1010.67749	34.80555																											 
29	0.280	-1032.84131	-1111.24097	1597.19373	-900.67206	-1129.67346	1597.17163	-1045.68970	-1229.08899	1532.65698	-915.41455	-1242.66577	1532.73181	-997.01318	-1251.38135	1385.86389	-1012.90186	-1305.60632	1081.37659	-981.88660	-1132.98950	1303.55432	-990.38812	-1100.61047	1134.32324	-922.03278	-1322.79602	1210.57849	-1140.06873	-1153.82410	1348.87451	-1217.22278	-1136.12842	1159.07300	-1225.50269	-1104.10339	1041.58459	-1195.15247	-1026.65906	945.29901	-1135.02734	-961.73547	862.39087	-1187.34265	-970.47485	846.77246	-1157.83191	-912.70544	794.54846	-830.70880	-1205.07727	1326.12329	-757.63373	-1241.13989	1108.30554	-737.66254	-1240.28943	995.83984	-727.93622	-1246.62866	858.84845	-754.19592	-1228.75476	757.25934	-714.68793	-1265.72729	760.76343	-718.92450	-1256.56116	685.99878	-1112.72192	-1166.34216	889.62988	-877.70148	-1164.41626	916.40082	-1064.21094	-1323.41003	937.87872	-918.54340	-1322.31128	957.80865	-1147.21497	-1296.18823	603.93378	-1122.71338	-1347.29749	431.98346	-1123.75183	-1494.98694	296.94626	-1083.82532	-1632.32312	129.24713	-1047.21252	-1679.00916	124.58407	-1070.41125	-1520.51208	28.44525	-820.22253	-1154.92212	635.87793	-862.48840	-1083.23999	474.98007	-854.00757	-1116.15198	283.33890	-896.30066	-1147.61816	68.89953	-945.06378	-1196.06897	34.93326	-915.97314	-1010.25122	34.35947																											 
30	0.290	-1032.69043	-1101.65479	1599.85913	-900.47162	-1119.79883	1599.82947	-1045.20996	-1219.33984	1534.90283	-914.69452	-1233.23413	1534.96680	-996.05493	-1240.79370	1388.06897	-1011.33417	-1294.40881	1083.33167	-981.67877	-1122.08276	1306.14392	-990.49310	-1088.88623	1137.11670	-920.41406	-1311.13818	1212.58899	-1139.70691	-1144.02271	1351.35840	-1217.00647	-1128.23621	1161.23840	-1225.26184	-1097.31445	1043.39917	-1195.35376	-1020.54956	946.62744	-1135.37488	-955.95715	863.21942	-1187.64209	-965.06665	847.55511	-1158.38464	-907.40698	795.04034	-829.96368	-1193.24475	1328.75464	-757.19226	-1228.33594	1110.54480	-737.73120	-1226.81555	997.98694	-728.62274	-1232.08252	860.91681	-755.38251	-1213.42029	759.67889	-715.82782	-1250.28076	762.63684	-720.24469	-1240.04053	688.15735	-1111.52478	-1154.57080	891.96851	-876.83795	-1152.19263	918.18463	-1063.03650	-1311.73096	939.87469	-917.23199	-1310.18079	959.80731	-1147.83069	-1279.31433	604.21790	-1125.14172	-1326.38147	430.76144	-1124.35938	-1478.13354	299.99893	-1084.63733	-1617.83850	140.92822	-1044.72058	-1666.68213	137.18674	-1069.47583	-1518.55042	28.79631	-819.84320	-1145.77979	636.30103	-863.08264	-1076.82813	474.24701	-854.06934	-1113.04663	282.84302	-896.13641	-1147.21985	68.61012	-944.82556	-1196.20837	34.88381	-916.47418	-1010.03156	33.95600																											 
31	0.300	-1032.74219	-1091.99817	1602.59875	-900.36328	-1109.74097	1602.53528	-1044.84778	-1209.47241	1537.29736	-914.25763	-1222.92590	1537.31641	-995.05261	-1229.82947	1389.95435	-1009.37909	-1283.05750	1085.49976	-981.40808	-1111.16431	1308.88965	-990.01111	-1077.59875	1139.84717	-918.37451	-1299.47583	1214.98975	-1139.30823	-1134.30554	1353.90613	-1216.74109	-1120.40100	1163.47131	-1224.95386	-1090.66260	1045.32910	-1195.44165	-1014.61023	947.78760	-1136.08276	-950.41754	863.81592	-1188.19299	-960.10242	848.17560	-1159.18945	-902.75488	795.13135	-829.23492	-1181.05542	1331.50732	-756.68359	-1215.06799	1113.01221	-737.74841	-1212.89001	1000.38959	-729.22961	-1217.07361	863.24707	-756.73944	-1197.61829	762.37720	-716.91888	-1234.33142	764.78314	-722.14111	-1223.28357	690.43781	-1110.67639	-1143.12109	894.77618	-875.93896	-1140.27039	920.02594	-1060.92004	-1302.21301	943.18964	-915.93793	-1298.22058	961.85980	-1148.60889	-1261.60095	604.29297	-1127.12659	-1304.55847	428.68756	-1124.49792	-1459.56860	302.95917	-1081.09839	-1606.53284	147.88980	-1042.35889	-1651.91699	149.96536	-1068.09180	-1516.49182	29.22099	-819.25635	-1136.17883	637.13470	-863.46130	-1071.03784	473.57886	-853.77472	-1110.63611	282.43570	-895.98596	-1147.06360	68.46502	-944.62091	-1196.30823	34.87381	-916.09216	-1010.02576	33.80572																											 
32	0.310	-1032.65808	-1082.15247	1605.19763	-900.35284	-1099.51550	1605.15393	-1044.49695	-1199.48401	1539.69189	-913.93304	-1212.57202	1539.65308	-994.02600	-1219.13293	1392.16504	-1007.27393	-1271.94153	1087.67761	-981.24591	-1100.20837	1311.59241	-989.89825	-1066.32568	1142.39465	-915.93817	-1287.57764	1217.54773	-1138.92957	-1124.68530	1356.52283	-1216.53149	-1112.62854	1165.89758	-1224.35632	-1083.99683	1047.35950	-1195.71753	-1008.86963	948.87317	-1136.77808	-945.33429	864.11841	-1188.88367	-955.50732	848.63708	-1160.26196	-898.64453	794.82440	-828.59888	-1168.55481	1334.29749	-756.11627	-1201.53308	1115.67737	-737.70270	-1198.65564	1002.93207	-729.89990	-1201.56018	865.77252	-758.07629	-1181.44958	765.15735	-717.93915	-1217.85303	767.06586	-723.25299	-1205.94336	692.89319	-1109.20483	-1131.61609	897.51654	-875.08514	-1128.60095	921.88013	-1060.78113	-1289.16846	944.27905	-914.71375	-1286.46191	963.92511	-1149.72278	-1242.96350	604.28668	-1129.74536	-1280.06360	428.02722	-1124.71484	-1438.84705	305.84335	-1080.27600	-1590.18225	156.51889	-1040.67212	-1634.30151	162.83044	-1066.58618	-1514.35852	29.73967	-818.54150	-1127.16687	638.42346	-863.37024	-1066.43921	472.89587	-853.34229	-1108.55249	282.02689	-895.75305	-1146.94373	68.29466	-944.42505	-1196.41943	34.88985	-915.85059	-1010.09637	33.68439																											 
33	0.320	-1032.80676	-1072.21497	1607.64685	-900.40765	-1089.19653	1607.55383	-1044.29773	-1189.43738	1542.01306	-913.96198	-1201.57629	1541.94116	-992.99542	-1208.37000	1394.17261	-1005.19525	-1261.00928	1090.09106	-981.35089	-1089.13440	1314.04333	-990.17236	-1054.89331	1144.85193	-913.21564	-1275.63989	1220.22766	-1138.52319	-1115.23523	1359.02490	-1216.16882	-1104.82532	1168.25720	-1223.90686	-1077.48926	1049.24146	-1196.10266	-1003.36792	949.95386	-1137.78259	-940.41034	864.18793	-1189.77234	-951.20331	848.87402	-1161.55212	-894.94501	794.06573	-828.03571	-1155.86377	1337.13611	-755.48688	-1187.63696	1118.24548	-737.63593	-1184.03296	1005.43585	-730.40051	-1185.64001	868.29846	-759.33038	-1164.84692	768.05060	-718.91156	-1200.87976	769.37433	-724.77637	-1188.43909	695.26770	-1107.93530	-1120.38171	900.33594	-874.19641	-1117.41846	923.51135	-1059.61829	-1277.99390	946.16553	-913.67920	-1274.95544	965.95715	-1151.03113	-1223.98730	604.11029	-1131.11719	-1255.56006	426.75049	-1124.60046	-1416.21545	308.24728	-1081.69873	-1569.25854	166.87320	-1039.96643	-1615.17249	175.30487	-1065.49207	-1507.46521	33.03009	-817.88342	-1119.34106	639.68683	-862.60480	-1063.08289	472.43335	-852.73053	-1106.76306	281.69720	-895.37317	-1146.75964	68.20132	-944.11469	-1196.53455	34.88011	-915.55878	-1010.23035	33.65451																											 
34	0.330	-1032.82141	-1062.15112	1609.70203	-900.48608	-1078.81104	1609.62439	-1044.17517	-1179.29480	1544.04236	-913.59174	-1191.79602	1543.93469	-991.93658	-1197.63049	1395.95679	-1003.23700	-1250.18250	1092.21924	-981.34271	-1078.22070	1316.21899	-990.14661	-1043.77222	1147.01978	-910.31073	-1263.60547	1222.82996	-1138.19470	-1105.96533	1361.31714	-1215.86792	-1097.09119	1170.44141	-1223.83691	-1071.36597	1051.23926	-1196.73804	-997.99438	950.63788	-1138.91235	-935.62549	863.92462	-1190.88025	-947.05420	848.85162	-1163.01050	-891.66058	792.84552	-827.59491	-1142.90430	1339.71106	-754.78149	-1173.52222	1120.67908	-737.42560	-1169.25269	1007.92987	-730.86804	-1169.31982	870.66345	-760.60773	-1147.75720	770.83875	-719.73602	-1183.37463	771.50208	-726.73370	-1170.56104	697.23163	-1107.15601	-1109.50818	902.99524	-873.43445	-1106.15039	925.22412	-1058.75964	-1267.32837	947.89288	-912.84088	-1263.81653	967.88147	-1152.37036	-1204.55359	604.11548	-1131.22632	-1231.47717	424.68344	-1124.87720	-1392.25806	310.22073	-1080.99512	-1550.65723	174.76781	-1040.15161	-1596.02502	185.66199	-1064.18005	-1492.22351	39.09739	-817.35516	-1113.10034	640.46252	-861.66797	-1060.28015	471.87546	-852.13745	-1105.15039	281.38528	-895.28406	-1146.88611	68.11952	-943.75299	-1196.53955	34.73699	-915.54340	-1010.37823	33.59191																											 
